PathFileType	4	(X/Y/Z)	./resultDataOpenSim/trcMotMarkerGrf/sub06/qtm-05-05.trc
DataRate	CameraRate	NumFrames	NumMarkers	Units	OrigDataRate	OrigDataStartFrame	OrigNumFrames
250.000000	250.000000	7	24	m	250.000000	190	505
Frame#	Time	L.Toe.Tip			R.Toe.Tip			L.Ankle.Lat			R.Ankle.Lat			L.Ankle.Med			R.Ankle.Med			L.Heel			R.Heel			L.Knee.Lat			R.Knee.Lat			L.Knee.Med			R.Knee.Med			L.Thigh.Upper			R.Thigh.Upper			L.ASIS			R.ASIS			V.Sacral			L.Acromium			R.Acromium			C7			L.Elbow			R.Elbow			L.Wrist.Lat			R.Wrist.Lat
		X1	Y1	Z1	X2	Y2	Z2	X3	Y3	Z3	X4	Y4	Z4	X5	Y5	Z5	X6	Y6	Z6	X7	Y7	Z7	X8	Y8	Z8	X9	Y9	Z9	X10	Y10	Z10	X11	Y11	Z11	X12	Y12	Z12	X13	Y13	Z13	X14	Y14	Z14	X15	Y15	Z15	X16	Y16	Z16	X17	Y17	Z17	X18	Y18	Z18	X19	Y19	Z19	X20	Y20	Z20	X21	Y21	Z21	X22	Y22	Z22	X23	Y23	Z23	X24	Y24	Z24

190	0.756	0.049264306	-0.065278638	0.005995098	-0.64668919	0.066800557	0.12213759	-0.070286408	-0.034695585	-0.022129662	-0.63046258	0.20065848	0.16557886	-0.07539684	-0.020337467	0.066453001	-0.59029814	0.18896547	0.085746765	-0.15174815	-0.0572447	0.018350498	-0.6430681	0.2541561	0.10583408	0.060508897	0.3138928	-0.04139254	-0.25736235	0.27072105	0.2259427	0.031914069	0.31499694	0.076562296	-0.26253027	0.25892261	0.094768649	-0.10948603	0.67126095	-0.12334188	-0.21579751	0.62575461	0.20577796	-0.056076204	0.70474371	-0.063020153	-0.10484189	0.6844911	0.17620439	-0.28578288	0.78447294	0.021657576	-0.13136809	1.1664081	-0.16184657	-0.15053782	1.1765031	0.20174049	-0.22241095	1.2121493	0.013165118	-0.22526206	0.8671176	-0.19018723	-0.21665985	0.86841884	0.31034801	-0.14993723	0.64514853	-0.26049756	0.010421978	0.75675081	0.30900073
191	0.76	0.049175562	-0.065271156	0.0058742873	-0.62996552	0.069342399	0.12567229	-0.070256406	-0.034907084	-0.022254995	-0.61474619	0.20389955	0.16655439	-0.075302453	-0.020395097	0.066362134	-0.57486647	0.19150783	0.086742513	-0.15181495	-0.057266377	0.018361804	-0.6280962	0.25659807	0.10619597	0.062894025	0.31267871	-0.042105593	-0.24215986	0.26985801	0.22694836	0.033992469	0.31339065	0.07588785	-0.24864694	0.25908835	0.095584116	-0.10355639	0.67219203	-0.1233505	-0.20848525	0.62629365	0.20481281	-0.050453631	0.70537303	-0.063263351	-0.098970375	0.68547557	0.17632833	-0.27890478	0.78475908	0.021922904	-0.12350237	1.1670438	-0.16164285	-0.14454098	1.177377	0.20193402	-0.21535498	1.2131078	0.012904105	-0.21655812	0.8672987	-0.19077813	-0.21244559	0.86927443	0.308943	-0.13870574	0.64595557	-0.26058495	0.01254635	0.75385645	0.31010489
192	0.764	0.049091816	-0.065262205	0.0057614771	-0.61282214	0.071729155	0.12876307	-0.07024112	-0.035080638	-0.022354766	-0.59871635	0.20682568	0.16760661	-0.075213785	-0.020426915	0.066277784	-0.55908244	0.19362472	0.087704708	-0.1518894	-0.057288038	0.018421676	-0.61285875	0.25878437	0.10677016	0.06519005	0.31160087	-0.042702667	-0.2268111	0.26943109	0.22787208	0.035758785	0.31205806	0.075297411	-0.23456842	0.25936274	0.096230769	-0.0975623	0.67323002	-0.12338631	-0.20173343	0.62742662	0.20408032	-0.044795669	0.7061759	-0.063459339	-0.093304976	0.6866297	0.17657565	-0.27204476	0.78516271	0.022221938	-0.11574783	1.1678409	-0.16139438	-0.13867056	1.1784163	0.20220653	-0.2083557	1.214238	0.012725191	-0.20785964	0.86760019	-0.19142426	-0.20833642	0.87023918	0.30748696	-0.12740282	0.64694126	-0.26056676	0.014568065	0.75110393	0.31115833
193	0.768	0.049014897	-0.065252421	0.0056597446	-0.59545004	0.073920393	0.13152919	-0.070232633	-0.035219923	-0.022434523	-0.58249785	0.20936681	0.16871507	-0.075103905	-0.020409013	0.066179417	-0.54309534	0.19551294	0.088677785	-0.15198285	-0.057313541	0.018564954	-0.59740543	0.26073984	0.10754904	0.067407	0.31065174	-0.04317347	-0.21133368	0.26941946	0.22871533	0.037239589	0.31101944	0.074778674	-0.22026388	0.25976719	0.096745585	-0.091606767	0.6743505	-0.12349137	-0.19527063	0.62872701	0.20370191	-0.039087777	0.70715402	-0.063619424	-0.087714567	0.68793115	0.17685325	-0.26520377	0.78568569	0.022555303	-0.10810973	1.1687999	-0.1611086	-0.13290639	1.1796076	0.20255956	-0.20140075	1.215526	0.012637166	-0.19915297	0.86802448	-0.19217388	-0.20433219	0.87132523	0.30599145	-0.11603128	0.6481006	-0.26044273	0.016473233	0.74850873	0.31217338
194	0.772	0.048944928	-0.065242989	0.0055709821	-0.57790814	0.075924784	0.13410406	-0.070224204	-0.035329043	-0.022498048	-0.56616313	0.21154254	0.16986325	-0.074958992	-0.020337037	0.066056903	-0.52706907	0.19735643	0.089712193	-0.15209925	-0.057342627	0.01879661	-0.58188369	0.26247546	0.10846274	0.069531438	0.30982008	-0.043521748	-0.19576736	0.26978785	0.22946883	0.038440185	0.31025071	0.074308527	-0.20570441	0.26032497	0.097300237	-0.085716852	0.67552057	-0.12364829	-0.18885361	0.62986503	0.20373802	-0.033370172	0.70828303	-0.06374792	-0.0821091	0.68934932	0.17709421	-0.2583828	0.7863299	0.022923628	-0.10059475	1.1699167	-0.16079103	-0.12722503	1.1809369	0.20298468	-0.19448545	1.2169583	0.012638224	-0.19049322	0.8686013	-0.19297267	-0.20037811	0.87252906	0.30448605	-0.10460279	0.64942712	-0.26021507	0.018243673	0.74608233	0.31316912
195	0.776	0.04888131	-0.065235016	0.0054940025	-0.56020377	0.077763392	0.13656468	-0.070215835	-0.035411793	-0.022547255	-0.54977088	0.21342025	0.17102974	-0.07479978	-0.020233273	0.065927487	-0.51104065	0.19917336	0.090777813	-0.15222292	-0.057365376	0.019057776	-0.56646146	0.2640146	0.10943186	0.071505567	0.30909045	-0.043781898	-0.18016221	0.27050718	0.23012573	0.039415158	0.30972705	0.073891275	-0.19096082	0.26104962	0.097964792	-0.079944587	0.67670877	-0.12383818	-0.18240309	0.63091446	0.20401292	-0.027688465	0.70952515	-0.063853381	-0.07646889	0.69085417	0.1772888	-0.25158281	0.78709719	0.02332753	-0.093227288	1.1711881	-0.1604313	-0.12159672	1.1823929	0.20346468	-0.18760909	1.2185192	0.012718189	-0.18194048	0.86934987	-0.19371588	-0.19642798	0.87383649	0.30300469	-0.093133509	0.6509194	-0.25988631	0.019864529	0.74383265	0.31415778
196	0.78	0.048824325	-0.0652279	0.0054251234	-0.54231105	0.079436502	0.13896303	-0.070222909	-0.035469382	-0.022594983	-0.53337079	0.21507741	0.17219455	-0.07467029	-0.020129245	0.065818228	-0.4949526	0.20088344	0.09180369	-0.15233029	-0.057368244	0.019267494	-0.55122252	0.26539204	0.11042226	0.073252237	0.30845268	-0.044006247	-0.16454858	0.27157086	0.23069022	0.040270512	0.30943588	0.073558539	-0.17621539	0.26196698	0.098542915	-0.074368417	0.67790412	-0.1240523	-0.17593107	0.63214011	0.20425524	-0.022060774	0.71085202	-0.063950158	-0.070805989	0.69242812	0.17744866	-0.24480478	0.7879894	0.023767621	-0.086036071	1.1726163	-0.16001317	-0.1159901	1.1839667	0.20398226	-0.18077264	1.2201912	0.012867454	-0.17346336	0.87024917	-0.19439651	-0.19248849	0.87523906	0.30157222	-0.081627289	0.65258419	-0.25945177	0.021319563	0.74176518	0.31512987
